<svg width="250" height="242" viewBox="0 0 250 242" fill="none" xmlns="http://www.w3.org/2000/svg">
<rect width="250" height="242" rx="121" fill="url(#paint0_linear_53_811)"/>
<path d="M118.333 106.667L105 93.3334L109.7 88.6334L118.333 97.2334L140.3 75.2667L145 80L118.333 106.667ZM125 53.3334L95 66.6667V86.6667C95 105.167 107.8 122.467 125 126.667C142.2 122.467 155 105.167 155 86.6667V66.6667L125 53.3334Z" fill="url(#paint1_linear_53_811)"/>
<path d="M60.4923 166.072C60.4923 166.712 60.3269 167.251 59.9963 167.688C59.6656 168.115 59.2176 168.44 58.6523 168.664C58.0976 168.888 57.4896 169 56.8283 169H51.3403V157.64H57.4203C57.9536 157.64 58.4123 157.784 58.7963 158.072C59.1909 158.349 59.4896 158.712 59.6923 159.16C59.9056 159.597 60.0123 160.056 60.0123 160.536C60.0123 161.08 59.8736 161.597 59.5963 162.088C59.3189 162.579 58.9136 162.941 58.3802 163.176C59.0309 163.368 59.5429 163.715 59.9163 164.216C60.3003 164.717 60.4923 165.336 60.4923 166.072ZM58.2683 165.656C58.2683 165.368 58.2096 165.112 58.0923 164.888C57.9749 164.653 57.8149 164.472 57.6123 164.344C57.4203 164.205 57.1963 164.136 56.9403 164.136H53.5483V167.128H56.8283C57.0949 167.128 57.3349 167.064 57.5483 166.936C57.7723 166.797 57.9483 166.616 58.0763 166.392C58.2043 166.168 58.2683 165.923 58.2683 165.656ZM53.5483 159.528V162.392H56.4923C56.7376 162.392 56.9616 162.333 57.1643 162.216C57.3669 162.099 57.5269 161.933 57.6443 161.72C57.7723 161.507 57.8363 161.251 57.8363 160.952C57.8363 160.664 57.7776 160.413 57.6603 160.2C57.5536 159.987 57.4043 159.821 57.2123 159.704C57.0309 159.587 56.8229 159.528 56.5883 159.528H53.5483ZM62.0073 169V160.616H64.1513V163.256H65.6233C66.6366 163.256 67.4099 163.512 67.9433 164.024C68.4766 164.536 68.7433 165.213 68.7433 166.056C68.7433 166.621 68.6259 167.128 68.3913 167.576C68.1673 168.024 67.8366 168.376 67.3993 168.632C66.9619 168.877 66.4179 169 65.7673 169H62.0073ZM64.1513 167.368H65.4313C65.7299 167.368 65.9699 167.309 66.1513 167.192C66.3326 167.075 66.4659 166.92 66.5513 166.728C66.6473 166.536 66.6953 166.317 66.6953 166.072C66.6953 165.837 66.6526 165.629 66.5673 165.448C66.4819 165.256 66.3433 165.107 66.1513 165C65.9699 164.883 65.7246 164.824 65.4153 164.824H64.1513V167.368ZM70.0553 169V160.632H72.1993V169H70.0553ZM78.0675 169.16C77.3848 169.16 76.7715 169.048 76.2275 168.824C75.6835 168.589 75.2195 168.269 74.8355 167.864C74.4515 167.448 74.1528 166.979 73.9395 166.456C73.7368 165.933 73.6355 165.384 73.6355 164.808C73.6355 164.019 73.8115 163.299 74.1635 162.648C74.5262 161.987 75.0382 161.459 75.6995 161.064C76.3608 160.669 77.1448 160.472 78.0515 160.472C78.9582 160.472 79.7368 160.669 80.3875 161.064C81.0382 161.459 81.5235 161.976 81.8435 162.616L79.7475 163.256C79.5662 162.947 79.3262 162.712 79.0275 162.552C78.7288 162.381 78.3982 162.296 78.0355 162.296C77.6302 162.296 77.2568 162.403 76.9155 162.616C76.5848 162.819 76.3235 163.112 76.1315 163.496C75.9395 163.869 75.8435 164.307 75.8435 164.808C75.8435 165.299 75.9395 165.736 76.1315 166.12C76.3342 166.493 76.6008 166.792 76.9315 167.016C77.2622 167.229 77.6302 167.336 78.0355 167.336C78.2915 167.336 78.5315 167.293 78.7555 167.208C78.9902 167.123 79.1982 167.005 79.3795 166.856C79.5608 166.707 79.6942 166.536 79.7795 166.344L81.8755 166.984C81.6835 167.4 81.4008 167.773 81.0275 168.104C80.6648 168.435 80.2328 168.696 79.7315 168.888C79.2408 169.069 78.6862 169.16 78.0675 169.16ZM86.9886 169.16C86.306 169.16 85.6926 169.048 85.1486 168.824C84.6046 168.589 84.1406 168.269 83.7566 167.864C83.3833 167.459 83.0953 166.995 82.8926 166.472C82.69 165.949 82.5886 165.4 82.5886 164.824C82.5886 164.237 82.69 163.683 82.8926 163.16C83.0953 162.637 83.3833 162.173 83.7566 161.768C84.1406 161.363 84.6046 161.048 85.1486 160.824C85.6926 160.589 86.306 160.472 86.9886 160.472C87.6713 160.472 88.2793 160.589 88.8126 160.824C89.3566 161.048 89.8206 161.363 90.2046 161.768C90.5886 162.173 90.8766 162.637 91.0686 163.16C91.2713 163.683 91.3726 164.237 91.3726 164.824C91.3726 165.4 91.2713 165.949 91.0686 166.472C90.8766 166.995 90.5886 167.459 90.2046 167.864C89.8313 168.269 89.3726 168.589 88.8286 168.824C88.2846 169.048 87.6713 169.16 86.9886 169.16ZM84.7966 164.824C84.7966 165.315 84.8926 165.752 85.0846 166.136C85.2766 166.509 85.538 166.803 85.8686 167.016C86.1993 167.229 86.5726 167.336 86.9886 167.336C87.394 167.336 87.762 167.229 88.0926 167.016C88.4233 166.792 88.6846 166.493 88.8766 166.12C89.0793 165.736 89.1806 165.299 89.1806 164.808C89.1806 164.328 89.0793 163.896 88.8766 163.512C88.6846 163.128 88.4233 162.829 88.0926 162.616C87.762 162.403 87.394 162.296 86.9886 162.296C86.5726 162.296 86.1993 162.408 85.8686 162.632C85.538 162.845 85.2766 163.144 85.0846 163.528C84.8926 163.901 84.7966 164.333 84.7966 164.824ZM92.8198 169V160.616H94.9638V163.784H95.6838L97.9558 160.616H100.292L97.3158 164.664L100.612 169H98.1638L95.6518 165.672H94.9638V169H92.8198ZM105.379 169.16C104.697 169.16 104.083 169.048 103.539 168.824C102.995 168.589 102.531 168.269 102.147 167.864C101.774 167.459 101.486 166.995 101.283 166.472C101.081 165.949 100.979 165.4 100.979 164.824C100.979 164.237 101.081 163.683 101.283 163.16C101.486 162.637 101.774 162.173 102.147 161.768C102.531 161.363 102.995 161.048 103.539 160.824C104.083 160.589 104.697 160.472 105.379 160.472C106.062 160.472 106.67 160.589 107.203 160.824C107.747 161.048 108.211 161.363 108.595 161.768C108.979 162.173 109.267 162.637 109.459 163.16C109.662 163.683 109.763 164.237 109.763 164.824C109.763 165.4 109.662 165.949 109.459 166.472C109.267 166.995 108.979 167.459 108.595 167.864C108.222 168.269 107.763 168.589 107.219 168.824C106.675 169.048 106.062 169.16 105.379 169.16ZM103.187 164.824C103.187 165.315 103.283 165.752 103.475 166.136C103.667 166.509 103.929 166.803 104.259 167.016C104.59 167.229 104.963 167.336 105.379 167.336C105.785 167.336 106.153 167.229 106.483 167.016C106.814 166.792 107.075 166.493 107.267 166.12C107.47 165.736 107.571 165.299 107.571 164.808C107.571 164.328 107.47 163.896 107.267 163.512C107.075 163.128 106.814 162.829 106.483 162.616C106.153 162.403 105.785 162.296 105.379 162.296C104.963 162.296 104.59 162.408 104.259 162.632C103.929 162.845 103.667 163.144 103.475 163.528C103.283 163.901 103.187 164.333 103.187 164.824ZM115.098 169.16C114.426 169.16 113.818 169.048 113.274 168.824C112.73 168.589 112.266 168.275 111.882 167.88C111.498 167.475 111.2 167.016 110.986 166.504C110.784 165.981 110.682 165.432 110.682 164.856C110.682 164.056 110.858 163.325 111.21 162.664C111.573 162.003 112.085 161.475 112.746 161.08C113.418 160.675 114.208 160.472 115.114 160.472C116.032 160.472 116.816 160.675 117.466 161.08C118.117 161.475 118.613 162.003 118.954 162.664C119.306 163.315 119.482 164.019 119.482 164.776C119.482 164.904 119.477 165.037 119.466 165.176C119.456 165.304 119.445 165.411 119.434 165.496H112.954C112.997 165.923 113.12 166.296 113.322 166.616C113.536 166.936 113.802 167.181 114.122 167.352C114.453 167.512 114.805 167.592 115.178 167.592C115.605 167.592 116.005 167.491 116.378 167.288C116.762 167.075 117.024 166.797 117.162 166.456L119.002 166.968C118.8 167.395 118.506 167.773 118.122 168.104C117.749 168.435 117.306 168.696 116.794 168.888C116.282 169.069 115.717 169.16 115.098 169.16ZM112.906 164.136H117.29C117.248 163.709 117.125 163.341 116.922 163.032C116.73 162.712 116.474 162.467 116.154 162.296C115.834 162.115 115.477 162.024 115.082 162.024C114.698 162.024 114.346 162.115 114.026 162.296C113.717 162.467 113.461 162.712 113.258 163.032C113.066 163.341 112.949 163.709 112.906 164.136ZM124.632 169V160.616H126.776V163.784H127.496L129.768 160.616H132.104L129.128 164.664L132.424 169H129.976L127.464 165.672H126.776V169H124.632ZM133.103 166.52C133.103 165.976 133.252 165.501 133.551 165.096C133.86 164.68 134.287 164.36 134.831 164.136C135.375 163.912 135.999 163.8 136.703 163.8C137.055 163.8 137.412 163.827 137.775 163.88C138.138 163.933 138.452 164.019 138.719 164.136V163.688C138.719 163.155 138.559 162.744 138.239 162.456C137.93 162.168 137.466 162.024 136.847 162.024C136.388 162.024 135.951 162.104 135.535 162.264C135.119 162.424 134.682 162.659 134.223 162.968L133.535 161.56C134.09 161.197 134.655 160.925 135.231 160.744C135.818 160.563 136.431 160.472 137.071 160.472C138.266 160.472 139.194 160.771 139.855 161.368C140.527 161.965 140.863 162.819 140.863 163.928V166.6C140.863 166.824 140.9 166.984 140.975 167.08C141.06 167.176 141.194 167.235 141.375 167.256V169C141.183 169.032 141.007 169.059 140.847 169.08C140.698 169.101 140.57 169.112 140.463 169.112C140.036 169.112 139.711 169.016 139.487 168.824C139.274 168.632 139.14 168.397 139.087 168.12L139.039 167.688C138.676 168.157 138.223 168.52 137.679 168.776C137.135 169.032 136.58 169.16 136.015 169.16C135.46 169.16 134.959 169.048 134.511 168.824C134.074 168.589 133.727 168.275 133.471 167.88C133.226 167.475 133.103 167.021 133.103 166.52ZM138.319 166.952C138.436 166.824 138.532 166.696 138.607 166.568C138.682 166.44 138.719 166.323 138.719 166.216V165.368C138.463 165.261 138.186 165.181 137.887 165.128C137.588 165.064 137.306 165.032 137.039 165.032C136.484 165.032 136.026 165.155 135.663 165.4C135.311 165.635 135.135 165.949 135.135 166.344C135.135 166.557 135.194 166.76 135.311 166.952C135.428 167.144 135.599 167.299 135.823 167.416C136.047 167.533 136.314 167.592 136.623 167.592C136.943 167.592 137.258 167.533 137.567 167.416C137.876 167.288 138.127 167.133 138.319 166.952ZM147.539 169V165.992C147.219 166.131 146.893 166.232 146.563 166.296C146.243 166.36 145.875 166.392 145.459 166.392C144.573 166.392 143.88 166.157 143.379 165.688C142.877 165.208 142.627 164.509 142.627 163.592V160.616H144.771V163.304C144.771 163.805 144.877 164.173 145.091 164.408C145.315 164.643 145.656 164.76 146.115 164.76C146.371 164.76 146.627 164.733 146.883 164.68C147.139 164.627 147.357 164.552 147.539 164.456V160.616H149.699V169H147.539ZM155.536 169.16C154.864 169.16 154.256 169.048 153.712 168.824C153.168 168.589 152.704 168.275 152.32 167.88C151.936 167.475 151.637 167.016 151.424 166.504C151.221 165.981 151.12 165.432 151.12 164.856C151.12 164.056 151.296 163.325 151.648 162.664C152.011 162.003 152.523 161.475 153.184 161.08C153.856 160.675 154.645 160.472 155.552 160.472C156.469 160.472 157.253 160.675 157.904 161.08C158.555 161.475 159.051 162.003 159.392 162.664C159.744 163.315 159.92 164.019 159.92 164.776C159.92 164.904 159.915 165.037 159.904 165.176C159.893 165.304 159.883 165.411 159.872 165.496H153.392C153.435 165.923 153.557 166.296 153.76 166.616C153.973 166.936 154.24 167.181 154.56 167.352C154.891 167.512 155.243 167.592 155.616 167.592C156.043 167.592 156.443 167.491 156.816 167.288C157.2 167.075 157.461 166.797 157.6 166.456L159.44 166.968C159.237 167.395 158.944 167.773 158.56 168.104C158.187 168.435 157.744 168.696 157.232 168.888C156.72 169.069 156.155 169.16 155.536 169.16ZM153.344 164.136H157.728C157.685 163.709 157.563 163.341 157.36 163.032C157.168 162.712 156.912 162.467 156.592 162.296C156.272 162.115 155.915 162.024 155.52 162.024C155.136 162.024 154.784 162.115 154.464 162.296C154.155 162.467 153.899 162.712 153.696 163.032C153.504 163.341 153.387 163.709 153.344 164.136ZM165.13 169.16C164.447 169.16 163.834 169.048 163.29 168.824C162.746 168.589 162.282 168.269 161.898 167.864C161.514 167.448 161.215 166.979 161.002 166.456C160.799 165.933 160.698 165.384 160.698 164.808C160.698 164.019 160.874 163.299 161.226 162.648C161.589 161.987 162.101 161.459 162.762 161.064C163.423 160.669 164.207 160.472 165.114 160.472C166.021 160.472 166.799 160.669 167.45 161.064C168.101 161.459 168.586 161.976 168.906 162.616L166.81 163.256C166.629 162.947 166.389 162.712 166.09 162.552C165.791 162.381 165.461 162.296 165.098 162.296C164.693 162.296 164.319 162.403 163.978 162.616C163.647 162.819 163.386 163.112 163.194 163.496C163.002 163.869 162.906 164.307 162.906 164.808C162.906 165.299 163.002 165.736 163.194 166.12C163.397 166.493 163.663 166.792 163.994 167.016C164.325 167.229 164.693 167.336 165.098 167.336C165.354 167.336 165.594 167.293 165.818 167.208C166.053 167.123 166.261 167.005 166.442 166.856C166.623 166.707 166.757 166.536 166.842 166.344L168.938 166.984C168.746 167.4 168.463 167.773 168.09 168.104C167.727 168.435 167.295 168.696 166.794 168.888C166.303 169.069 165.749 169.16 165.13 169.16ZM172.193 169V162.488H169.537V160.616H177.009V162.488H174.337V169H172.193ZM178.21 169V160.616H182.882C183.458 160.616 183.922 160.712 184.274 160.904C184.637 161.096 184.904 161.347 185.074 161.656C185.245 161.965 185.33 162.296 185.33 162.648C185.33 163.117 185.224 163.528 185.01 163.88C184.808 164.232 184.488 164.504 184.05 164.696C184.541 164.835 184.941 165.075 185.25 165.416C185.56 165.747 185.714 166.184 185.714 166.728C185.714 167.251 185.592 167.683 185.346 168.024C185.101 168.355 184.749 168.6 184.29 168.76C183.832 168.92 183.288 169 182.658 169H178.21ZM180.242 167.544H182.594C182.786 167.544 182.962 167.496 183.122 167.4C183.282 167.304 183.405 167.176 183.49 167.016C183.586 166.856 183.634 166.68 183.634 166.488C183.634 166.285 183.592 166.109 183.506 165.96C183.421 165.8 183.298 165.677 183.138 165.592C182.989 165.496 182.813 165.448 182.61 165.448H180.242V167.544ZM180.242 164.104H182.338C182.53 164.104 182.701 164.056 182.85 163.96C183 163.864 183.112 163.736 183.186 163.576C183.272 163.416 183.314 163.24 183.314 163.048C183.314 162.771 183.224 162.541 183.042 162.36C182.872 162.168 182.642 162.072 182.354 162.072H180.242V164.104ZM191.145 169.16C190.462 169.16 189.849 169.048 189.305 168.824C188.761 168.589 188.297 168.269 187.913 167.864C187.54 167.459 187.252 166.995 187.049 166.472C186.846 165.949 186.745 165.4 186.745 164.824C186.745 164.237 186.846 163.683 187.049 163.16C187.252 162.637 187.54 162.173 187.913 161.768C188.297 161.363 188.761 161.048 189.305 160.824C189.849 160.589 190.462 160.472 191.145 160.472C191.828 160.472 192.436 160.589 192.969 160.824C193.513 161.048 193.977 161.363 194.361 161.768C194.745 162.173 195.033 162.637 195.225 163.16C195.428 163.683 195.529 164.237 195.529 164.824C195.529 165.4 195.428 165.949 195.225 166.472C195.033 166.995 194.745 167.459 194.361 167.864C193.988 168.269 193.529 168.589 192.985 168.824C192.441 169.048 191.828 169.16 191.145 169.16ZM188.953 164.824C188.953 165.315 189.049 165.752 189.241 166.136C189.433 166.509 189.694 166.803 190.025 167.016C190.356 167.229 190.729 167.336 191.145 167.336C191.55 167.336 191.918 167.229 192.249 167.016C192.58 166.792 192.841 166.493 193.033 166.12C193.236 165.736 193.337 165.299 193.337 164.808C193.337 164.328 193.236 163.896 193.033 163.512C192.841 163.128 192.58 162.829 192.249 162.616C191.918 162.403 191.55 162.296 191.145 162.296C190.729 162.296 190.356 162.408 190.025 162.632C189.694 162.845 189.433 163.144 189.241 163.528C189.049 163.901 188.953 164.333 188.953 164.824ZM80.0307 188V179.616H82.2707L84.8947 184.464L87.5347 179.616H89.7427V188H87.7107V182.576L85.5667 186.512H84.2227L82.0627 182.576V188H80.0307ZM91.1422 185.52C91.1422 184.976 91.2915 184.501 91.5902 184.096C91.8995 183.68 92.3262 183.36 92.8702 183.136C93.4142 182.912 94.0382 182.8 94.7422 182.8C95.0942 182.8 95.4515 182.827 95.8142 182.88C96.1769 182.933 96.4915 183.019 96.7582 183.136V182.688C96.7582 182.155 96.5982 181.744 96.2782 181.456C95.9689 181.168 95.5049 181.024 94.8862 181.024C94.4275 181.024 93.9902 181.104 93.5742 181.264C93.1582 181.424 92.7209 181.659 92.2622 181.968L91.5742 180.56C92.1289 180.197 92.6942 179.925 93.2702 179.744C93.8569 179.563 94.4702 179.472 95.1102 179.472C96.3049 179.472 97.2329 179.771 97.8942 180.368C98.5662 180.965 98.9022 181.819 98.9022 182.928V185.6C98.9022 185.824 98.9395 185.984 99.0142 186.08C99.0995 186.176 99.2329 186.235 99.4142 186.256V188C99.2222 188.032 99.0462 188.059 98.8862 188.08C98.7369 188.101 98.6089 188.112 98.5022 188.112C98.0755 188.112 97.7502 188.016 97.5262 187.824C97.3129 187.632 97.1795 187.397 97.1262 187.12L97.0782 186.688C96.7155 187.157 96.2622 187.52 95.7182 187.776C95.1742 188.032 94.6195 188.16 94.0542 188.16C93.4995 188.16 92.9982 188.048 92.5502 187.824C92.1129 187.589 91.7662 187.275 91.5102 186.88C91.2649 186.475 91.1422 186.021 91.1422 185.52ZM96.3582 185.952C96.4755 185.824 96.5715 185.696 96.6462 185.568C96.7209 185.44 96.7582 185.323 96.7582 185.216V184.368C96.5022 184.261 96.2249 184.181 95.9262 184.128C95.6275 184.064 95.3449 184.032 95.0782 184.032C94.5235 184.032 94.0649 184.155 93.7022 184.4C93.3502 184.635 93.1742 184.949 93.1742 185.344C93.1742 185.557 93.2329 185.76 93.3502 185.952C93.4675 186.144 93.6382 186.299 93.8622 186.416C94.0862 186.533 94.3529 186.592 94.6622 186.592C94.9822 186.592 95.2969 186.533 95.6062 186.416C95.9155 186.288 96.1662 186.133 96.3582 185.952ZM102.748 188V181.488H100.092V179.616H107.564V181.488H104.892V188H102.748ZM112.653 188.16C111.981 188.16 111.373 188.048 110.829 187.824C110.285 187.589 109.821 187.275 109.437 186.88C109.053 186.475 108.754 186.016 108.541 185.504C108.338 184.981 108.237 184.432 108.237 183.856C108.237 183.056 108.413 182.325 108.765 181.664C109.128 181.003 109.64 180.475 110.301 180.08C110.973 179.675 111.762 179.472 112.669 179.472C113.586 179.472 114.37 179.675 115.021 180.08C115.672 180.475 116.168 181.003 116.509 181.664C116.861 182.315 117.037 183.019 117.037 183.776C117.037 183.904 117.032 184.037 117.021 184.176C117.01 184.304 117 184.411 116.989 184.496H110.509C110.552 184.923 110.674 185.296 110.877 185.616C111.09 185.936 111.357 186.181 111.677 186.352C112.008 186.512 112.36 186.592 112.733 186.592C113.16 186.592 113.56 186.491 113.933 186.288C114.317 186.075 114.578 185.797 114.717 185.456L116.557 185.968C116.354 186.395 116.061 186.773 115.677 187.104C115.304 187.435 114.861 187.696 114.349 187.888C113.837 188.069 113.272 188.16 112.653 188.16ZM110.461 183.136H114.845C114.802 182.709 114.68 182.341 114.477 182.032C114.285 181.712 114.029 181.467 113.709 181.296C113.389 181.115 113.032 181.024 112.637 181.024C112.253 181.024 111.901 181.115 111.581 181.296C111.272 181.467 111.016 181.712 110.813 182.032C110.621 182.341 110.504 182.709 110.461 183.136ZM123.367 188.16C122.717 188.16 122.141 188.016 121.639 187.728C121.149 187.429 120.765 187.029 120.487 186.528V191.408H118.343V179.616H120.215V181.056C120.535 180.565 120.941 180.181 121.431 179.904C121.922 179.616 122.482 179.472 123.111 179.472C123.677 179.472 124.194 179.584 124.663 179.808C125.143 180.032 125.559 180.347 125.911 180.752C126.263 181.147 126.535 181.605 126.727 182.128C126.93 182.64 127.031 183.195 127.031 183.792C127.031 184.603 126.871 185.339 126.551 186C126.242 186.661 125.81 187.189 125.255 187.584C124.711 187.968 124.082 188.16 123.367 188.16ZM122.647 186.336C122.978 186.336 123.277 186.267 123.543 186.128C123.81 185.989 124.039 185.803 124.231 185.568C124.434 185.323 124.583 185.051 124.679 184.752C124.786 184.443 124.839 184.123 124.839 183.792C124.839 183.44 124.781 183.115 124.663 182.816C124.557 182.517 124.397 182.256 124.183 182.032C123.97 181.797 123.719 181.616 123.431 181.488C123.154 181.36 122.85 181.296 122.519 181.296C122.317 181.296 122.109 181.333 121.895 181.408C121.693 181.472 121.495 181.568 121.303 181.696C121.111 181.824 120.941 181.973 120.791 182.144C120.653 182.315 120.551 182.501 120.487 182.704V184.672C120.615 184.981 120.786 185.264 120.999 185.52C121.223 185.776 121.479 185.979 121.767 186.128C122.055 186.267 122.349 186.336 122.647 186.336ZM128.484 188V179.632H130.628V185.136L134.388 179.616H136.34V188H134.196V182.624L130.484 188H128.484ZM137.72 185.52C137.72 184.976 137.87 184.501 138.168 184.096C138.478 183.68 138.904 183.36 139.448 183.136C139.992 182.912 140.616 182.8 141.32 182.8C141.672 182.8 142.03 182.827 142.392 182.88C142.755 182.933 143.07 183.019 143.336 183.136V182.688C143.336 182.155 143.176 181.744 142.856 181.456C142.547 181.168 142.083 181.024 141.464 181.024C141.006 181.024 140.568 181.104 140.152 181.264C139.736 181.424 139.299 181.659 138.84 181.968L138.152 180.56C138.707 180.197 139.272 179.925 139.848 179.744C140.435 179.563 141.048 179.472 141.688 179.472C142.883 179.472 143.811 179.771 144.472 180.368C145.144 180.965 145.48 181.819 145.48 182.928V185.6C145.48 185.824 145.518 185.984 145.592 186.08C145.678 186.176 145.811 186.235 145.992 186.256V188C145.8 188.032 145.624 188.059 145.464 188.08C145.315 188.101 145.187 188.112 145.08 188.112C144.654 188.112 144.328 188.016 144.104 187.824C143.891 187.632 143.758 187.397 143.704 187.12L143.656 186.688C143.294 187.157 142.84 187.52 142.296 187.776C141.752 188.032 141.198 188.16 140.632 188.16C140.078 188.16 139.576 188.048 139.128 187.824C138.691 187.589 138.344 187.275 138.088 186.88C137.843 186.475 137.72 186.021 137.72 185.52ZM142.936 185.952C143.054 185.824 143.15 185.696 143.224 185.568C143.299 185.44 143.336 185.323 143.336 185.216V184.368C143.08 184.261 142.803 184.181 142.504 184.128C142.206 184.064 141.923 184.032 141.656 184.032C141.102 184.032 140.643 184.155 140.28 184.4C139.928 184.635 139.752 184.949 139.752 185.344C139.752 185.557 139.811 185.76 139.928 185.952C140.046 186.144 140.216 186.299 140.44 186.416C140.664 186.533 140.931 186.592 141.24 186.592C141.56 186.592 141.875 186.533 142.184 186.416C142.494 186.288 142.744 186.133 142.936 185.952ZM146.876 188.112V186.208C147.132 186.197 147.361 186.133 147.564 186.016C147.766 185.899 147.942 185.701 148.092 185.424C148.252 185.136 148.374 184.736 148.46 184.224C148.556 183.712 148.62 183.056 148.652 182.256L148.764 179.616H155.052V188H152.908V181.488H150.652L150.62 182.464C150.577 183.563 150.47 184.475 150.3 185.2C150.129 185.925 149.889 186.501 149.58 186.928C149.281 187.344 148.908 187.643 148.46 187.824C148.012 188.005 147.484 188.101 146.876 188.112ZM160.871 188.16C160.189 188.16 159.575 188.048 159.031 187.824C158.487 187.589 158.023 187.269 157.639 186.864C157.266 186.459 156.978 185.995 156.775 185.472C156.573 184.949 156.471 184.4 156.471 183.824C156.471 183.237 156.573 182.683 156.775 182.16C156.978 181.637 157.266 181.173 157.639 180.768C158.023 180.363 158.487 180.048 159.031 179.824C159.575 179.589 160.189 179.472 160.871 179.472C161.554 179.472 162.162 179.589 162.695 179.824C163.239 180.048 163.703 180.363 164.087 180.768C164.471 181.173 164.759 181.637 164.951 182.16C165.154 182.683 165.255 183.237 165.255 183.824C165.255 184.4 165.154 184.949 164.951 185.472C164.759 185.995 164.471 186.459 164.087 186.864C163.714 187.269 163.255 187.589 162.711 187.824C162.167 188.048 161.554 188.16 160.871 188.16ZM158.679 183.824C158.679 184.315 158.775 184.752 158.967 185.136C159.159 185.509 159.421 185.803 159.751 186.016C160.082 186.229 160.455 186.336 160.871 186.336C161.277 186.336 161.645 186.229 161.975 186.016C162.306 185.792 162.567 185.493 162.759 185.12C162.962 184.736 163.063 184.299 163.063 183.808C163.063 183.328 162.962 182.896 162.759 182.512C162.567 182.128 162.306 181.829 161.975 181.616C161.645 181.403 161.277 181.296 160.871 181.296C160.455 181.296 160.082 181.408 159.751 181.632C159.421 181.845 159.159 182.144 158.967 182.528C158.775 182.901 158.679 183.333 158.679 183.824ZM166.703 188V179.616H171.375C171.951 179.616 172.415 179.712 172.767 179.904C173.129 180.096 173.396 180.347 173.567 180.656C173.737 180.965 173.823 181.296 173.823 181.648C173.823 182.117 173.716 182.528 173.503 182.88C173.3 183.232 172.98 183.504 172.543 183.696C173.033 183.835 173.433 184.075 173.743 184.416C174.052 184.747 174.207 185.184 174.207 185.728C174.207 186.251 174.084 186.683 173.839 187.024C173.593 187.355 173.241 187.6 172.783 187.76C172.324 187.92 171.78 188 171.151 188H166.703ZM168.735 186.544H171.087C171.279 186.544 171.455 186.496 171.615 186.4C171.775 186.304 171.897 186.176 171.983 186.016C172.079 185.856 172.127 185.68 172.127 185.488C172.127 185.285 172.084 185.109 171.999 184.96C171.913 184.8 171.791 184.677 171.631 184.592C171.481 184.496 171.305 184.448 171.103 184.448H168.735V186.544ZM168.735 183.104H170.831C171.023 183.104 171.193 183.056 171.343 182.96C171.492 182.864 171.604 182.736 171.679 182.576C171.764 182.416 171.807 182.24 171.807 182.048C171.807 181.771 171.716 181.541 171.535 181.36C171.364 181.168 171.135 181.072 170.847 181.072H168.735V183.104Z" fill="black"/>
<ellipse cx="65.8654" cy="38.5" rx="18.75" ry="19.5" fill="white"/>
<defs>
<linearGradient id="paint0_linear_53_811" x1="125" y1="-4.63352e-06" x2="275.5" y2="214.5" gradientUnits="userSpaceOnUse">
<stop offset="0.526042" stop-color="#F2F2F3"/>
<stop offset="1" stop-color="#F2F2F3" stop-opacity="0"/>
</linearGradient>
<linearGradient id="paint1_linear_53_811" x1="125" y1="53.3334" x2="125" y2="126.667" gradientUnits="userSpaceOnUse">
<stop stop-color="#FF9900" stop-opacity="0.76"/>
<stop offset="1" stop-color="#F0AF4E" stop-opacity="0.46"/>
</linearGradient>
</defs>
</svg>
