<svg width="250" height="242" viewBox="0 0 250 242" fill="none" xmlns="http://www.w3.org/2000/svg">
<rect width="250" height="242" rx="121" fill="url(#paint0_linear_53_804)"/>
<path d="M127.5 63.1334C130.833 60.7334 134.7 59.5334 139.067 59.5334C141.467 59.5334 144.1 60.1667 146.967 61.5C149.833 62.8 152.1 64.3334 153.767 66.1C157.2 70.3667 158.633 75.3334 158.133 81C157.6 86.6667 155.733 91.1 152.5 94.2334L127.2 119.533C126.567 120.167 125.767 120.467 124.833 120.467C123.9 120.467 123.133 120.167 122.5 119.533C121.867 118.9 121.567 118.133 121.567 117.2C121.567 116.267 121.867 115.467 122.5 114.833L137.8 99.5334C138.633 98.8 138.633 98.0334 137.8 97.2C136.967 96.3667 136.2 96.3667 135.467 97.2L120.167 112.5C119.533 113.133 118.767 113.433 117.8 113.433C116.867 113.433 116.1 113.133 115.467 112.5C114.833 111.867 114.533 111.1 114.533 110.167C114.533 109.233 114.833 108.433 115.467 107.8L130.767 92.5C131.667 91.6667 131.667 90.8334 130.767 90C130 89.1667 129.267 89.1667 128.433 90L113.133 105.467C112.5 106.1 111.667 106.4 110.767 106.4C109.833 106.4 109.033 106.1 108.333 105.467C107.667 104.833 107.333 104.067 107.333 103.133C107.333 102.2 107.7 101.367 108.433 100.633L123.767 85.3C124.6 84.4667 124.6 83.7 123.767 82.9667C122.933 82.2334 122.133 82.2334 121.4 82.9667L105.933 98.3334C105.2 99 104.433 99.3667 103.6 99.3667C102.667 99.3667 101.867 99.0334 101.267 98.3334C100.633 97.6667 100.3 96.8667 100.3 95.9334C100.3 95 100.633 94.2334 101.267 93.6C111.467 83.3334 117.767 77.1334 120.167 74.8334L132.033 86.5667C133.333 87.8 134.833 88.4334 136.667 88.4334C139 88.4334 140.833 87.5 142.2 85.6334C143.133 84.2667 143.467 82.7667 143.2 81.1C142.933 79.4334 142.233 78.0334 141.1 76.8667L127.5 63.1334ZM134.367 84.2334L120.167 70L96.5667 93.6C93.7667 90.7667 92.1667 86.4334 91.8 80.5334C91.4333 74.6667 93.0334 69.5667 96.5667 65.3C100.533 61.3667 105.267 59.3667 110.767 59.3667C116.3 59.3667 121 61.3667 124.833 65.3L139.067 79.5334C139.7 80.1667 140 80.9334 140 81.8667C140 82.8 139.7 83.6 139.067 84.2334C138.433 84.8334 137.667 85.1667 136.667 85.1667C135.767 85.1667 135 84.8334 134.367 84.2334Z" fill="url(#paint1_linear_53_804)"/>
<path d="M24.514 169V157.64H26.706V165.896L32.21 157.64H34.258V169H32.066V160.84L26.626 169H24.514ZM36.4916 169V160.616H38.6356V163.816H42.0276V160.616H44.1716V169H42.0276V165.608H38.6356V169H36.4916ZM45.4443 171.032V167.128H45.6683C45.8816 167.128 46.0789 167.069 46.2603 166.952C46.4523 166.835 46.6176 166.637 46.7563 166.36C46.9056 166.072 47.0229 165.677 47.1083 165.176C47.2043 164.675 47.2683 164.035 47.3003 163.256L47.3963 160.616H53.6843V167.128H54.8523V171.032H52.9803V169H47.3323V171.032H45.4443ZM48.3723 167.128H51.5403V162.424H49.2682L49.2203 163.464C49.1883 164.168 49.1349 164.765 49.0603 165.256C48.9963 165.736 48.9056 166.131 48.7883 166.44C48.6816 166.739 48.5429 166.968 48.3723 167.128ZM56.2416 169V160.632H58.3856V166.136L62.1456 160.616H64.0976V169H61.9536V163.624L58.2416 169H56.2416ZM66.0541 169V160.616H70.7261C71.3021 160.616 71.7661 160.712 72.1181 160.904C72.4808 161.096 72.7475 161.347 72.9181 161.656C73.0888 161.965 73.1741 162.296 73.1741 162.648C73.1741 163.117 73.0675 163.528 72.8541 163.88C72.6515 164.232 72.3315 164.504 71.8941 164.696C72.3848 164.835 72.7848 165.075 73.0941 165.416C73.4035 165.747 73.5581 166.184 73.5581 166.728C73.5581 167.251 73.4355 167.683 73.1901 168.024C72.9448 168.355 72.5928 168.6 72.1341 168.76C71.6755 168.92 71.1315 169 70.5021 169H66.0541ZM68.0861 167.544H70.4381C70.6301 167.544 70.8061 167.496 70.9661 167.4C71.1261 167.304 71.2488 167.176 71.3341 167.016C71.4301 166.856 71.4781 166.68 71.4781 166.488C71.4781 166.285 71.4355 166.109 71.3501 165.96C71.2648 165.8 71.1421 165.677 70.9821 165.592C70.8328 165.496 70.6568 165.448 70.4541 165.448H68.0861V167.544ZM68.0861 164.104H70.1821C70.3741 164.104 70.5448 164.056 70.6941 163.96C70.8435 163.864 70.9555 163.736 71.0301 163.576C71.1155 163.416 71.1581 163.24 71.1581 163.048C71.1581 162.771 71.0675 162.541 70.8861 162.36C70.7155 162.168 70.4861 162.072 70.1981 162.072H68.0861V164.104ZM75.1166 169V160.632H77.2606V166.136L81.0206 160.616H82.9726V169H80.8286V163.624L77.1166 169H75.1166ZM84.2411 171.032V167.128H84.4651C84.6785 167.128 84.8758 167.069 85.0571 166.952C85.2491 166.835 85.4145 166.637 85.5531 166.36C85.7025 166.072 85.8198 165.677 85.9051 165.176C86.0011 164.675 86.0651 164.035 86.0971 163.256L86.1931 160.616H92.4811V167.128H93.6491V171.032H91.7771V169H86.1291V171.032H84.2411ZM87.1691 167.128H90.3371V162.424H88.0651L88.0171 163.464C87.9851 164.168 87.9318 164.765 87.8571 165.256C87.7931 165.736 87.7025 166.131 87.5851 166.44C87.4785 166.739 87.3398 166.968 87.1691 167.128ZM96.2865 172.616C96.0625 172.616 95.8332 172.589 95.5985 172.536C95.3745 172.483 95.1132 172.403 94.8145 172.296L95.2305 170.6C95.3905 170.675 95.5398 170.728 95.6785 170.76C95.8278 170.792 95.9612 170.808 96.0785 170.808C96.3452 170.808 96.5798 170.712 96.7825 170.52C96.9958 170.328 97.1665 170.035 97.2945 169.64L97.5505 168.952L94.1585 160.616H96.3825L98.6385 166.808L100.623 160.616H102.671L99.2465 170.2C99.0652 170.712 98.8252 171.144 98.5265 171.496C98.2278 171.859 97.8865 172.136 97.5025 172.328C97.1185 172.52 96.7132 172.616 96.2865 172.616ZM103.056 166.52C103.056 165.976 103.206 165.501 103.504 165.096C103.814 164.68 104.24 164.36 104.784 164.136C105.328 163.912 105.952 163.8 106.656 163.8C107.008 163.8 107.366 163.827 107.728 163.88C108.091 163.933 108.406 164.019 108.672 164.136V163.688C108.672 163.155 108.512 162.744 108.192 162.456C107.883 162.168 107.419 162.024 106.8 162.024C106.342 162.024 105.904 162.104 105.488 162.264C105.072 162.424 104.635 162.659 104.176 162.968L103.488 161.56C104.043 161.197 104.608 160.925 105.184 160.744C105.771 160.563 106.384 160.472 107.024 160.472C108.219 160.472 109.147 160.771 109.808 161.368C110.48 161.965 110.816 162.819 110.816 163.928V166.6C110.816 166.824 110.854 166.984 110.928 167.08C111.014 167.176 111.147 167.235 111.328 167.256V169C111.136 169.032 110.96 169.059 110.8 169.08C110.651 169.101 110.523 169.112 110.416 169.112C109.99 169.112 109.664 169.016 109.44 168.824C109.227 168.632 109.094 168.397 109.04 168.12L108.992 167.688C108.63 168.157 108.176 168.52 107.632 168.776C107.088 169.032 106.534 169.16 105.968 169.16C105.414 169.16 104.912 169.048 104.464 168.824C104.027 168.589 103.68 168.275 103.424 167.88C103.179 167.475 103.056 167.021 103.056 166.52ZM108.272 166.952C108.39 166.824 108.486 166.696 108.56 166.568C108.635 166.44 108.672 166.323 108.672 166.216V165.368C108.416 165.261 108.139 165.181 107.84 165.128C107.542 165.064 107.259 165.032 106.992 165.032C106.438 165.032 105.979 165.155 105.616 165.4C105.264 165.635 105.088 165.949 105.088 166.344C105.088 166.557 105.147 166.76 105.264 166.952C105.382 167.144 105.552 167.299 105.776 167.416C106 167.533 106.267 167.592 106.576 167.592C106.896 167.592 107.211 167.533 107.52 167.416C107.83 167.288 108.08 167.133 108.272 166.952ZM112.212 169.112V167.208C112.468 167.197 112.697 167.133 112.9 167.016C113.102 166.899 113.278 166.701 113.428 166.424C113.588 166.136 113.71 165.736 113.796 165.224C113.892 164.712 113.956 164.056 113.988 163.256L114.1 160.616H120.388V169H118.244V162.488H115.988L115.956 163.464C115.913 164.563 115.806 165.475 115.636 166.2C115.465 166.925 115.225 167.501 114.916 167.928C114.617 168.344 114.244 168.643 113.796 168.824C113.348 169.005 112.82 169.101 112.212 169.112ZM122.335 169V160.616H124.479V163.256H126.383C127.386 163.256 128.154 163.512 128.687 164.024C129.221 164.536 129.487 165.213 129.487 166.056C129.487 166.621 129.375 167.128 129.151 167.576C128.927 168.024 128.597 168.376 128.159 168.632C127.722 168.877 127.178 169 126.527 169H122.335ZM124.479 167.368H126.191C126.479 167.368 126.714 167.309 126.895 167.192C127.087 167.075 127.226 166.92 127.311 166.728C127.407 166.536 127.455 166.317 127.455 166.072C127.455 165.837 127.413 165.629 127.327 165.448C127.242 165.256 127.103 165.107 126.911 165C126.73 164.883 126.485 164.824 126.175 164.824H124.479V167.368ZM130.835 169V160.616H132.979V163.816H136.371V160.616H138.515V169H136.371V165.608H132.979V169H130.835ZM140.476 169V160.616H142.62V163.256H144.092C145.105 163.256 145.879 163.512 146.412 164.024C146.945 164.536 147.212 165.213 147.212 166.056C147.212 166.621 147.095 167.128 146.86 167.576C146.636 168.024 146.305 168.376 145.868 168.632C145.431 168.877 144.887 169 144.236 169H140.476ZM142.62 167.368H143.9C144.199 167.368 144.439 167.309 144.62 167.192C144.801 167.075 144.935 166.92 145.02 166.728C145.116 166.536 145.164 166.317 145.164 166.072C145.164 165.837 145.121 165.629 145.036 165.448C144.951 165.256 144.812 165.107 144.62 165C144.439 164.883 144.193 164.824 143.884 164.824H142.62V167.368ZM148.524 169V160.632H150.668V169H148.524ZM152.632 169V160.632H154.776V166.136L158.536 160.616H160.488V169H158.344V163.624L154.632 169H152.632ZM156.568 159.832C155.747 159.832 155.102 159.624 154.632 159.208C154.163 158.781 153.928 158.237 153.928 157.576H155.256C155.256 157.896 155.363 158.163 155.576 158.376C155.79 158.589 156.12 158.696 156.568 158.696C157.016 158.696 157.336 158.595 157.528 158.392C157.731 158.189 157.854 157.917 157.896 157.576H159.224C159.224 158.237 158.99 158.781 158.52 159.208C158.051 159.624 157.4 159.832 156.568 159.832ZM166.289 169V160.616H173.809V169H171.665V162.488H168.433V169H166.289ZM179.629 169.16C178.947 169.16 178.333 169.048 177.789 168.824C177.245 168.589 176.781 168.269 176.397 167.864C176.024 167.459 175.736 166.995 175.533 166.472C175.331 165.949 175.229 165.4 175.229 164.824C175.229 164.237 175.331 163.683 175.533 163.16C175.736 162.637 176.024 162.173 176.397 161.768C176.781 161.363 177.245 161.048 177.789 160.824C178.333 160.589 178.947 160.472 179.629 160.472C180.312 160.472 180.92 160.589 181.453 160.824C181.997 161.048 182.461 161.363 182.845 161.768C183.229 162.173 183.517 162.637 183.709 163.16C183.912 163.683 184.013 164.237 184.013 164.824C184.013 165.4 183.912 165.949 183.709 166.472C183.517 166.995 183.229 167.459 182.845 167.864C182.472 168.269 182.013 168.589 181.469 168.824C180.925 169.048 180.312 169.16 179.629 169.16ZM177.437 164.824C177.437 165.315 177.533 165.752 177.725 166.136C177.917 166.509 178.179 166.803 178.509 167.016C178.84 167.229 179.213 167.336 179.629 167.336C180.035 167.336 180.403 167.229 180.733 167.016C181.064 166.792 181.325 166.493 181.517 166.12C181.72 165.736 181.821 165.299 181.821 164.808C181.821 164.328 181.72 163.896 181.517 163.512C181.325 163.128 181.064 162.829 180.733 162.616C180.403 162.403 180.035 162.296 179.629 162.296C179.213 162.296 178.84 162.408 178.509 162.632C178.179 162.845 177.917 163.144 177.725 163.528C177.533 163.901 177.437 164.333 177.437 164.824ZM184.772 171.032V167.128H184.996C185.21 167.128 185.407 167.069 185.588 166.952C185.78 166.835 185.946 166.637 186.084 166.36C186.234 166.072 186.351 165.677 186.436 165.176C186.532 164.675 186.596 164.035 186.628 163.256L186.724 160.616H193.012V167.128H194.18V171.032H192.308V169H186.66V171.032H184.772ZM187.7 167.128H190.868V162.424H188.596L188.548 163.464C188.516 164.168 188.463 164.765 188.388 165.256C188.324 165.736 188.234 166.131 188.116 166.44C188.01 166.739 187.871 166.968 187.7 167.128ZM196.946 160.616L198.706 163.24L198.834 163.528L198.994 163.24L200.738 160.616H202.994L200.082 164.792L203.042 169H200.786L198.978 166.392L198.834 166.12L198.706 166.392L196.914 169H194.658L197.618 164.84L194.706 160.616H196.946ZM207.942 169.16C207.259 169.16 206.646 169.048 206.102 168.824C205.558 168.589 205.094 168.269 204.71 167.864C204.336 167.459 204.048 166.995 203.846 166.472C203.643 165.949 203.542 165.4 203.542 164.824C203.542 164.237 203.643 163.683 203.846 163.16C204.048 162.637 204.336 162.173 204.71 161.768C205.094 161.363 205.558 161.048 206.102 160.824C206.646 160.589 207.259 160.472 207.942 160.472C208.624 160.472 209.232 160.589 209.766 160.824C210.31 161.048 210.774 161.363 211.158 161.768C211.542 162.173 211.83 162.637 212.022 163.16C212.224 163.683 212.326 164.237 212.326 164.824C212.326 165.4 212.224 165.949 212.022 166.472C211.83 166.995 211.542 167.459 211.158 167.864C210.784 168.269 210.326 168.589 209.782 168.824C209.238 169.048 208.624 169.16 207.942 169.16ZM205.75 164.824C205.75 165.315 205.846 165.752 206.038 166.136C206.23 166.509 206.491 166.803 206.822 167.016C207.152 167.229 207.526 167.336 207.942 167.336C208.347 167.336 208.715 167.229 209.046 167.016C209.376 166.792 209.638 166.493 209.83 166.12C210.032 165.736 210.134 165.299 210.134 164.808C210.134 164.328 210.032 163.896 209.83 163.512C209.638 163.128 209.376 162.829 209.046 162.616C208.715 162.403 208.347 162.296 207.942 162.296C207.526 162.296 207.152 162.408 206.822 162.632C206.491 162.845 206.23 163.144 206.038 163.528C205.846 163.901 205.75 164.333 205.75 164.824ZM213.085 171.032V167.128H213.309C213.522 167.128 213.72 167.069 213.901 166.952C214.093 166.835 214.258 166.637 214.397 166.36C214.546 166.072 214.664 165.677 214.749 165.176C214.845 164.675 214.909 164.035 214.941 163.256L215.037 160.616H221.325V167.128H222.493V171.032H220.621V169H214.973V171.032H213.085ZM216.013 167.128H219.181V162.424H216.909L216.861 163.464C216.829 164.168 216.776 164.765 216.701 165.256C216.637 165.736 216.546 166.131 216.429 166.44C216.322 166.739 216.184 166.968 216.013 167.128ZM49.4604 188V179.616H51.6044V182.784H52.3244L54.5964 179.616H56.9324L53.9564 183.664L57.2524 188H54.8044L52.2924 184.672H51.6044V188H49.4604ZM62.4291 188V179.616H64.5731V182.784H65.2931L67.5651 179.616H69.9011L66.9251 183.664L70.2211 188H67.7731L65.2611 184.672H64.5731V188H62.4291ZM70.9 185.52C70.9 184.976 71.0493 184.501 71.348 184.096C71.6573 183.68 72.084 183.36 72.628 183.136C73.172 182.912 73.796 182.8 74.5 182.8C74.852 182.8 75.2093 182.827 75.572 182.88C75.9347 182.933 76.2493 183.019 76.516 183.136V182.688C76.516 182.155 76.356 181.744 76.036 181.456C75.7267 181.168 75.2627 181.024 74.644 181.024C74.1853 181.024 73.748 181.104 73.332 181.264C72.916 181.424 72.4787 181.659 72.02 181.968L71.332 180.56C71.8867 180.197 72.452 179.925 73.028 179.744C73.6147 179.563 74.228 179.472 74.868 179.472C76.0627 179.472 76.9907 179.771 77.652 180.368C78.324 180.965 78.66 181.819 78.66 182.928V185.6C78.66 185.824 78.6973 185.984 78.772 186.08C78.8573 186.176 78.9907 186.235 79.172 186.256V188C78.98 188.032 78.804 188.059 78.644 188.08C78.4947 188.101 78.3667 188.112 78.26 188.112C77.8333 188.112 77.508 188.016 77.284 187.824C77.0707 187.632 76.9373 187.397 76.884 187.12L76.836 186.688C76.4733 187.157 76.02 187.52 75.476 187.776C74.932 188.032 74.3773 188.16 73.812 188.16C73.2573 188.16 72.756 188.048 72.308 187.824C71.8707 187.589 71.524 187.275 71.268 186.88C71.0227 186.475 70.9 186.021 70.9 185.52ZM76.116 185.952C76.2333 185.824 76.3293 185.696 76.404 185.568C76.4787 185.44 76.516 185.323 76.516 185.216V184.368C76.26 184.261 75.9827 184.181 75.684 184.128C75.3853 184.064 75.1027 184.032 74.836 184.032C74.2813 184.032 73.8227 184.155 73.46 184.4C73.108 184.635 72.932 184.949 72.932 185.344C72.932 185.557 72.9907 185.76 73.108 185.952C73.2253 186.144 73.396 186.299 73.62 186.416C73.844 186.533 74.1107 186.592 74.42 186.592C74.74 186.592 75.0547 186.533 75.364 186.416C75.6733 186.288 75.924 186.133 76.116 185.952ZM80.0395 188L82.9835 183.664L80.2475 179.616H82.6315L84.7755 182.8H85.4315V179.616H87.6395V182.8H88.3435L90.4395 179.616H92.8395L90.1035 183.664L93.0635 188H90.6155L88.3435 184.656H87.6395V188H85.4475V184.656H84.7755L82.4715 188H80.0395ZM93.6786 190.032V186.128H93.9026C94.116 186.128 94.3133 186.069 94.4946 185.952C94.6866 185.835 94.852 185.637 94.9906 185.36C95.14 185.072 95.2573 184.677 95.3426 184.176C95.4386 183.675 95.5026 183.035 95.5346 182.256L95.6306 179.616H101.919V186.128H103.087V190.032H101.215V188H95.5666V190.032H93.6786ZM96.6066 186.128H99.7746V181.424H97.5026L97.4546 182.464C97.4226 183.168 97.3693 183.765 97.2946 184.256C97.2306 184.736 97.14 185.131 97.0226 185.44C96.916 185.739 96.7773 185.968 96.6066 186.128ZM108.348 188.16C107.665 188.16 107.052 188.048 106.508 187.824C105.964 187.589 105.5 187.269 105.116 186.864C104.743 186.459 104.455 185.995 104.252 185.472C104.049 184.949 103.948 184.4 103.948 183.824C103.948 183.237 104.049 182.683 104.252 182.16C104.455 181.637 104.743 181.173 105.116 180.768C105.5 180.363 105.964 180.048 106.508 179.824C107.052 179.589 107.665 179.472 108.348 179.472C109.031 179.472 109.639 179.589 110.172 179.824C110.716 180.048 111.18 180.363 111.564 180.768C111.948 181.173 112.236 181.637 112.428 182.16C112.631 182.683 112.732 183.237 112.732 183.824C112.732 184.4 112.631 184.949 112.428 185.472C112.236 185.995 111.948 186.459 111.564 186.864C111.191 187.269 110.732 187.589 110.188 187.824C109.644 188.048 109.031 188.16 108.348 188.16ZM106.156 183.824C106.156 184.315 106.252 184.752 106.444 185.136C106.636 185.509 106.897 185.803 107.228 186.016C107.559 186.229 107.932 186.336 108.348 186.336C108.753 186.336 109.121 186.229 109.452 186.016C109.783 185.792 110.044 185.493 110.236 185.12C110.439 184.736 110.54 184.299 110.54 183.808C110.54 183.328 110.439 182.896 110.236 182.512C110.044 182.128 109.783 181.829 109.452 181.616C109.121 181.403 108.753 181.296 108.348 181.296C107.932 181.296 107.559 181.408 107.228 181.632C106.897 181.845 106.636 182.144 106.444 182.528C106.252 182.901 106.156 183.333 106.156 183.824ZM114.179 188V179.616H116.419L119.043 184.464L121.683 179.616H123.891V188H121.859V182.576L119.715 186.512H118.371L116.211 182.576V188H114.179ZM127.083 191.616C126.859 191.616 126.63 191.589 126.395 191.536C126.171 191.483 125.91 191.403 125.611 191.296L126.027 189.6C126.187 189.675 126.337 189.728 126.475 189.76C126.625 189.792 126.758 189.808 126.875 189.808C127.142 189.808 127.377 189.712 127.579 189.52C127.793 189.328 127.963 189.035 128.091 188.64L128.347 187.952L124.955 179.616H127.179L129.435 185.808L131.419 179.616H133.467L130.043 189.2C129.862 189.712 129.622 190.144 129.323 190.496C129.025 190.859 128.683 191.136 128.299 191.328C127.915 191.52 127.51 191.616 127.083 191.616ZM138.07 188V179.616H140.214V182.784H140.934L143.206 179.616H145.542L142.566 183.664L145.862 188H143.414L140.902 184.672H140.214V188H138.07ZM146.587 188.112V186.208C146.843 186.197 147.072 186.133 147.275 186.016C147.477 185.899 147.653 185.701 147.803 185.424C147.963 185.136 148.085 184.736 148.171 184.224C148.267 183.712 148.331 183.056 148.363 182.256L148.475 179.616H154.763V188H152.619V181.488H150.363L150.331 182.464C150.288 183.563 150.181 184.475 150.011 185.2C149.84 185.925 149.6 186.501 149.291 186.928C148.992 187.344 148.619 187.643 148.171 187.824C147.723 188.005 147.195 188.101 146.587 188.112ZM156.71 188V179.632H158.854V185.136L162.614 179.616H164.566V188H162.422V182.624L158.71 188H156.71ZM170.411 188.16C169.739 188.16 169.131 188.048 168.587 187.824C168.043 187.589 167.579 187.275 167.195 186.88C166.811 186.475 166.512 186.016 166.299 185.504C166.096 184.981 165.995 184.432 165.995 183.856C165.995 183.056 166.171 182.325 166.523 181.664C166.886 181.003 167.398 180.475 168.059 180.08C168.731 179.675 169.52 179.472 170.427 179.472C171.344 179.472 172.128 179.675 172.779 180.08C173.43 180.475 173.926 181.003 174.267 181.664C174.619 182.315 174.795 183.019 174.795 183.776C174.795 183.904 174.79 184.037 174.779 184.176C174.768 184.304 174.758 184.411 174.747 184.496H168.267C168.31 184.923 168.432 185.296 168.635 185.616C168.848 185.936 169.115 186.181 169.435 186.352C169.766 186.512 170.118 186.592 170.491 186.592C170.918 186.592 171.318 186.491 171.691 186.288C172.075 186.075 172.336 185.797 172.475 185.456L174.315 185.968C174.112 186.395 173.819 186.773 173.435 187.104C173.062 187.435 172.619 187.696 172.107 187.888C171.595 188.069 171.03 188.16 170.411 188.16ZM168.219 183.136H172.603C172.56 182.709 172.438 182.341 172.235 182.032C172.043 181.712 171.787 181.467 171.467 181.296C171.147 181.115 170.79 181.024 170.395 181.024C170.011 181.024 169.659 181.115 169.339 181.296C169.03 181.467 168.774 181.712 168.571 182.032C168.379 182.341 168.262 182.709 168.219 183.136ZM176.101 188V179.616H178.245V182.816H181.637V179.616H183.781V188H181.637V184.608H178.245V188H176.101ZM187.678 188V181.488H185.022V179.616H192.494V181.488H189.822V188H187.678ZM194.943 191.616C194.719 191.616 194.489 191.589 194.255 191.536C194.031 191.483 193.769 191.403 193.471 191.296L193.887 189.6C194.047 189.675 194.196 189.728 194.335 189.76C194.484 189.792 194.617 189.808 194.735 189.808C195.001 189.808 195.236 189.712 195.439 189.52C195.652 189.328 195.823 189.035 195.951 188.64L196.207 187.952L192.815 179.616H195.039L197.295 185.808L199.279 179.616H201.327L197.903 189.2C197.721 189.712 197.481 190.144 197.183 190.496C196.884 190.859 196.543 191.136 196.159 191.328C195.775 191.52 195.369 191.616 194.943 191.616Z" fill="black"/>
<ellipse cx="69.6138" cy="38.5" rx="19.8171" ry="19.5" fill="white"/>
<defs>
<linearGradient id="paint0_linear_53_804" x1="125" y1="5.40321e-06" x2="300.5" y2="242" gradientUnits="userSpaceOnUse">
<stop offset="0.526042" stop-color="#F2F2F3"/>
<stop offset="1" stop-color="#F2F2F3" stop-opacity="0"/>
</linearGradient>
<linearGradient id="paint1_linear_53_804" x1="124.989" y1="59.3667" x2="124.989" y2="120.467" gradientUnits="userSpaceOnUse">
<stop stop-color="#FF9900" stop-opacity="0.76"/>
<stop offset="1" stop-color="#F0AF4E" stop-opacity="0.46"/>
</linearGradient>
</defs>
</svg>
