<svg width="250" height="242" viewBox="0 0 250 242" fill="none" xmlns="http://www.w3.org/2000/svg">
<rect width="250" height="242" rx="121" fill="url(#paint0_linear_53_818)"/>
<path d="M163.333 106.667L146.667 123.333L135 111.667L140 106.667L146.667 113.333L158.333 101.667L163.333 106.667ZM128.333 113.333C128.333 108.333 130 104 133 100.333L121.667 93.3333V73.3333H126.667V90.6666L137 97C140.333 94.6666 144 93.3333 148.333 93.3333C151.667 93.3333 155 94.3333 157.667 95.6666C158 93.6666 158.333 92 158.333 90C158.333 71.6666 143.333 56.6666 125 56.6666C106.667 56.6666 91.6667 71.6666 91.6667 90C91.6667 108.333 106.667 123.333 125 123.333C127 123.333 129 123 130.667 122.667C129.333 120 128.333 116.667 128.333 113.333Z" fill="url(#paint1_linear_53_818)"/>
<path d="M51.6859 169.096C50.9605 169.096 50.2992 168.989 49.7019 168.776C49.1045 168.552 48.5819 168.243 48.1339 167.848C47.6859 167.453 47.3072 166.989 46.9979 166.456L48.8219 165.416C49.0139 165.768 49.2539 166.077 49.5419 166.344C49.8299 166.6 50.1552 166.797 50.5179 166.936C50.8912 167.075 51.2859 167.144 51.7019 167.144C52.2139 167.144 52.6779 167.048 53.0939 166.856C53.5099 166.653 53.8619 166.381 54.1499 166.04C54.4485 165.688 54.6725 165.288 54.8219 164.84C54.9819 164.381 55.0619 163.901 55.0619 163.4L55.9579 164.008H50.7259V162.376H55.9099L55.0459 162.968C55.0245 162.52 54.9392 162.088 54.7899 161.672C54.6405 161.256 54.4219 160.888 54.1339 160.568C53.8459 160.248 53.4992 159.997 53.0939 159.816C52.6885 159.624 52.2245 159.528 51.7019 159.528C51.2965 159.528 50.9125 159.597 50.5499 159.736C50.1872 159.864 49.8672 160.056 49.5899 160.312C49.3125 160.568 49.0779 160.883 48.8859 161.256L47.1419 160.056C47.6005 159.331 48.1925 158.739 48.9179 158.28C49.6539 157.811 50.5872 157.576 51.7179 157.576C52.6032 157.576 53.3925 157.736 54.0859 158.056C54.7792 158.376 55.3659 158.808 55.8459 159.352C56.3259 159.896 56.6885 160.509 56.9339 161.192C57.1899 161.875 57.3179 162.584 57.3179 163.32C57.3179 164.088 57.1845 164.819 56.9179 165.512C56.6619 166.205 56.2832 166.824 55.7819 167.368C55.2912 167.901 54.6992 168.323 54.0059 168.632C53.3125 168.941 52.5392 169.096 51.6859 169.096ZM58.726 169V160.616H60.87V163.784H61.59L63.862 160.616H66.198L63.222 164.664L66.518 169H64.07L61.558 165.672H60.87V169H58.726ZM71.3175 169.16C70.6348 169.16 70.0215 169.048 69.4775 168.824C68.9335 168.589 68.4695 168.269 68.0855 167.864C67.7015 167.448 67.4028 166.979 67.1895 166.456C66.9868 165.933 66.8855 165.384 66.8855 164.808C66.8855 164.019 67.0615 163.299 67.4135 162.648C67.7762 161.987 68.2882 161.459 68.9495 161.064C69.6108 160.669 70.3948 160.472 71.3015 160.472C72.2082 160.472 72.9868 160.669 73.6375 161.064C74.2882 161.459 74.7735 161.976 75.0935 162.616L72.9975 163.256C72.8162 162.947 72.5762 162.712 72.2775 162.552C71.9788 162.381 71.6482 162.296 71.2855 162.296C70.8802 162.296 70.5068 162.403 70.1655 162.616C69.8348 162.819 69.5735 163.112 69.3815 163.496C69.1895 163.869 69.0935 164.307 69.0935 164.808C69.0935 165.299 69.1895 165.736 69.3815 166.12C69.5842 166.493 69.8508 166.792 70.1815 167.016C70.5122 167.229 70.8802 167.336 71.2855 167.336C71.5415 167.336 71.7815 167.293 72.0055 167.208C72.2402 167.123 72.4482 167.005 72.6295 166.856C72.8108 166.707 72.9442 166.536 73.0295 166.344L75.1255 166.984C74.9335 167.4 74.6508 167.773 74.2775 168.104C73.9148 168.435 73.4828 168.696 72.9815 168.888C72.4908 169.069 71.9362 169.16 71.3175 169.16ZM76.4448 169V160.616H83.9648V169H81.8208V162.488H78.5888V169H76.4448ZM90.9375 169.16C90.2868 169.16 89.7108 169.016 89.2095 168.728C88.7188 168.429 88.3348 168.029 88.0575 167.528V172.408H85.9135V160.616H87.7855V162.056C88.1055 161.565 88.5108 161.181 89.0015 160.904C89.4922 160.616 90.0522 160.472 90.6815 160.472C91.2468 160.472 91.7642 160.584 92.2335 160.808C92.7135 161.032 93.1295 161.347 93.4815 161.752C93.8335 162.147 94.1055 162.605 94.2975 163.128C94.5002 163.64 94.6015 164.195 94.6015 164.792C94.6015 165.603 94.4415 166.339 94.1215 167C93.8122 167.661 93.3802 168.189 92.8255 168.584C92.2815 168.968 91.6522 169.16 90.9375 169.16ZM90.2175 167.336C90.5482 167.336 90.8468 167.267 91.1135 167.128C91.3802 166.989 91.6095 166.803 91.8015 166.568C92.0042 166.323 92.1535 166.051 92.2495 165.752C92.3562 165.443 92.4095 165.123 92.4095 164.792C92.4095 164.44 92.3508 164.115 92.2335 163.816C92.1268 163.517 91.9668 163.256 91.7535 163.032C91.5402 162.797 91.2895 162.616 91.0015 162.488C90.7242 162.36 90.4202 162.296 90.0895 162.296C89.8868 162.296 89.6788 162.333 89.4655 162.408C89.2628 162.472 89.0655 162.568 88.8735 162.696C88.6815 162.824 88.5108 162.973 88.3615 163.144C88.2228 163.315 88.1215 163.501 88.0575 163.704V165.672C88.1855 165.981 88.3562 166.264 88.5695 166.52C88.7935 166.776 89.0495 166.979 89.3375 167.128C89.6255 167.267 89.9188 167.336 90.2175 167.336ZM99.9421 169.16C99.2701 169.16 98.6621 169.048 98.1181 168.824C97.5741 168.589 97.1101 168.275 96.7261 167.88C96.3421 167.475 96.0435 167.016 95.8301 166.504C95.6275 165.981 95.5261 165.432 95.5261 164.856C95.5261 164.056 95.7021 163.325 96.0541 162.664C96.4168 162.003 96.9288 161.475 97.5901 161.08C98.2621 160.675 99.0515 160.472 99.9581 160.472C100.875 160.472 101.659 160.675 102.31 161.08C102.961 161.475 103.457 162.003 103.798 162.664C104.15 163.315 104.326 164.019 104.326 164.776C104.326 164.904 104.321 165.037 104.31 165.176C104.299 165.304 104.289 165.411 104.278 165.496H97.7981C97.8408 165.923 97.9635 166.296 98.1661 166.616C98.3795 166.936 98.6461 167.181 98.9661 167.352C99.2968 167.512 99.6488 167.592 100.022 167.592C100.449 167.592 100.849 167.491 101.222 167.288C101.606 167.075 101.867 166.797 102.006 166.456L103.846 166.968C103.643 167.395 103.35 167.773 102.966 168.104C102.593 168.435 102.15 168.696 101.638 168.888C101.126 169.069 100.561 169.16 99.9421 169.16ZM97.7501 164.136H102.134C102.091 163.709 101.969 163.341 101.766 163.032C101.574 162.712 101.318 162.467 100.998 162.296C100.678 162.115 100.321 162.024 99.9261 162.024C99.5421 162.024 99.1901 162.115 98.8701 162.296C98.5608 162.467 98.3048 162.712 98.1021 163.032C97.9101 163.341 97.7928 163.709 97.7501 164.136ZM109.536 169.16C108.854 169.16 108.24 169.048 107.696 168.824C107.152 168.589 106.688 168.269 106.304 167.864C105.92 167.448 105.622 166.979 105.408 166.456C105.206 165.933 105.104 165.384 105.104 164.808C105.104 164.019 105.28 163.299 105.632 162.648C105.995 161.987 106.507 161.459 107.168 161.064C107.83 160.669 108.614 160.472 109.52 160.472C110.427 160.472 111.206 160.669 111.856 161.064C112.507 161.459 112.992 161.976 113.312 162.616L111.216 163.256C111.035 162.947 110.795 162.712 110.496 162.552C110.198 162.381 109.867 162.296 109.504 162.296C109.099 162.296 108.726 162.403 108.384 162.616C108.054 162.819 107.792 163.112 107.6 163.496C107.408 163.869 107.312 164.307 107.312 164.808C107.312 165.299 107.408 165.736 107.6 166.12C107.803 166.493 108.07 166.792 108.4 167.016C108.731 167.229 109.099 167.336 109.504 167.336C109.76 167.336 110 167.293 110.224 167.208C110.459 167.123 110.667 167.005 110.848 166.856C111.03 166.707 111.163 166.536 111.248 166.344L113.344 166.984C113.152 167.4 112.87 167.773 112.496 168.104C112.134 168.435 111.702 168.696 111.2 168.888C110.71 169.069 110.155 169.16 109.536 169.16ZM118.489 169.16C117.807 169.16 117.193 169.048 116.649 168.824C116.105 168.589 115.641 168.269 115.257 167.864C114.873 167.448 114.575 166.979 114.361 166.456C114.159 165.933 114.057 165.384 114.057 164.808C114.057 164.019 114.233 163.299 114.585 162.648C114.948 161.987 115.46 161.459 116.121 161.064C116.783 160.669 117.567 160.472 118.473 160.472C119.38 160.472 120.159 160.669 120.809 161.064C121.46 161.459 121.945 161.976 122.265 162.616L120.169 163.256C119.988 162.947 119.748 162.712 119.449 162.552C119.151 162.381 118.82 162.296 118.457 162.296C118.052 162.296 117.679 162.403 117.337 162.616C117.007 162.819 116.745 163.112 116.553 163.496C116.361 163.869 116.265 164.307 116.265 164.808C116.265 165.299 116.361 165.736 116.553 166.12C116.756 166.493 117.023 166.792 117.353 167.016C117.684 167.229 118.052 167.336 118.457 167.336C118.713 167.336 118.953 167.293 119.177 167.208C119.412 167.123 119.62 167.005 119.801 166.856C119.983 166.707 120.116 166.536 120.201 166.344L122.297 166.984C122.105 167.4 121.823 167.773 121.449 168.104C121.087 168.435 120.655 168.696 120.153 168.888C119.663 169.069 119.108 169.16 118.489 169.16ZM126.772 171.032V167.128H126.996C127.21 167.128 127.407 167.069 127.588 166.952C127.78 166.835 127.946 166.637 128.084 166.36C128.234 166.072 128.351 165.677 128.436 165.176C128.532 164.675 128.596 164.035 128.628 163.256L128.724 160.616H135.012V167.128H136.18V171.032H134.308V169H128.66V171.032H126.772ZM129.7 167.128H132.868V162.424H130.596L130.548 163.464C130.516 164.168 130.463 164.765 130.388 165.256C130.324 165.736 130.234 166.131 130.116 166.44C130.01 166.739 129.871 166.968 129.7 167.128ZM141.442 169.16C140.759 169.16 140.146 169.048 139.602 168.824C139.058 168.589 138.594 168.269 138.21 167.864C137.836 167.459 137.548 166.995 137.346 166.472C137.143 165.949 137.042 165.4 137.042 164.824C137.042 164.237 137.143 163.683 137.346 163.16C137.548 162.637 137.836 162.173 138.21 161.768C138.594 161.363 139.058 161.048 139.602 160.824C140.146 160.589 140.759 160.472 141.442 160.472C142.124 160.472 142.732 160.589 143.266 160.824C143.81 161.048 144.274 161.363 144.658 161.768C145.042 162.173 145.33 162.637 145.522 163.16C145.724 163.683 145.826 164.237 145.826 164.824C145.826 165.4 145.724 165.949 145.522 166.472C145.33 166.995 145.042 167.459 144.658 167.864C144.284 168.269 143.826 168.589 143.282 168.824C142.738 169.048 142.124 169.16 141.442 169.16ZM139.25 164.824C139.25 165.315 139.346 165.752 139.538 166.136C139.73 166.509 139.991 166.803 140.322 167.016C140.652 167.229 141.026 167.336 141.442 167.336C141.847 167.336 142.215 167.229 142.546 167.016C142.876 166.792 143.138 166.493 143.33 166.12C143.532 165.736 143.634 165.299 143.634 164.808C143.634 164.328 143.532 163.896 143.33 163.512C143.138 163.128 142.876 162.829 142.546 162.616C142.215 162.403 141.847 162.296 141.442 162.296C141.026 162.296 140.652 162.408 140.322 162.632C139.991 162.845 139.73 163.144 139.538 163.528C139.346 163.901 139.25 164.333 139.25 164.824ZM151.177 169.16C150.494 169.16 149.881 169.048 149.337 168.824C148.793 168.589 148.329 168.269 147.945 167.864C147.561 167.448 147.262 166.979 147.049 166.456C146.846 165.933 146.745 165.384 146.745 164.808C146.745 164.019 146.921 163.299 147.273 162.648C147.636 161.987 148.148 161.459 148.809 161.064C149.47 160.669 150.254 160.472 151.161 160.472C152.068 160.472 152.846 160.669 153.497 161.064C154.148 161.459 154.633 161.976 154.953 162.616L152.857 163.256C152.676 162.947 152.436 162.712 152.137 162.552C151.838 162.381 151.508 162.296 151.145 162.296C150.74 162.296 150.366 162.403 150.025 162.616C149.694 162.819 149.433 163.112 149.241 163.496C149.049 163.869 148.953 164.307 148.953 164.808C148.953 165.299 149.049 165.736 149.241 166.12C149.444 166.493 149.71 166.792 150.041 167.016C150.372 167.229 150.74 167.336 151.145 167.336C151.401 167.336 151.641 167.293 151.865 167.208C152.1 167.123 152.308 167.005 152.489 166.856C152.67 166.707 152.804 166.536 152.889 166.344L154.985 166.984C154.793 167.4 154.51 167.773 154.137 168.104C153.774 168.435 153.342 168.696 152.841 168.888C152.35 169.069 151.796 169.16 151.177 169.16ZM158.24 169V162.488H155.584V160.616H163.056V162.488H160.384V169H158.24ZM163.65 166.52C163.65 165.976 163.799 165.501 164.098 165.096C164.407 164.68 164.834 164.36 165.378 164.136C165.922 163.912 166.546 163.8 167.25 163.8C167.602 163.8 167.959 163.827 168.322 163.88C168.685 163.933 168.999 164.019 169.266 164.136V163.688C169.266 163.155 169.106 162.744 168.786 162.456C168.477 162.168 168.013 162.024 167.394 162.024C166.935 162.024 166.498 162.104 166.082 162.264C165.666 162.424 165.229 162.659 164.77 162.968L164.082 161.56C164.637 161.197 165.202 160.925 165.778 160.744C166.365 160.563 166.978 160.472 167.618 160.472C168.813 160.472 169.741 160.771 170.402 161.368C171.074 161.965 171.41 162.819 171.41 163.928V166.6C171.41 166.824 171.447 166.984 171.522 167.08C171.607 167.176 171.741 167.235 171.922 167.256V169C171.73 169.032 171.554 169.059 171.394 169.08C171.245 169.101 171.117 169.112 171.01 169.112C170.583 169.112 170.258 169.016 170.034 168.824C169.821 168.632 169.687 168.397 169.634 168.12L169.586 167.688C169.223 168.157 168.77 168.52 168.226 168.776C167.682 169.032 167.127 169.16 166.562 169.16C166.007 169.16 165.506 169.048 165.058 168.824C164.621 168.589 164.274 168.275 164.018 167.88C163.773 167.475 163.65 167.021 163.65 166.52ZM168.866 166.952C168.983 166.824 169.079 166.696 169.154 166.568C169.229 166.44 169.266 166.323 169.266 166.216V165.368C169.01 165.261 168.733 165.181 168.434 165.128C168.135 165.064 167.853 165.032 167.586 165.032C167.031 165.032 166.573 165.155 166.21 165.4C165.858 165.635 165.682 165.949 165.682 166.344C165.682 166.557 165.741 166.76 165.858 166.952C165.975 167.144 166.146 167.299 166.37 167.416C166.594 167.533 166.861 167.592 167.17 167.592C167.49 167.592 167.805 167.533 168.114 167.416C168.423 167.288 168.674 167.133 168.866 166.952ZM173.414 169V160.616H178.086C178.662 160.616 179.126 160.712 179.478 160.904C179.84 161.096 180.107 161.347 180.278 161.656C180.448 161.965 180.534 162.296 180.534 162.648C180.534 163.117 180.427 163.528 180.214 163.88C180.011 164.232 179.691 164.504 179.254 164.696C179.744 164.835 180.144 165.075 180.454 165.416C180.763 165.747 180.918 166.184 180.918 166.728C180.918 167.251 180.795 167.683 180.55 168.024C180.304 168.355 179.952 168.6 179.494 168.76C179.035 168.92 178.491 169 177.862 169H173.414ZM175.446 167.544H177.798C177.99 167.544 178.166 167.496 178.326 167.4C178.486 167.304 178.608 167.176 178.694 167.016C178.79 166.856 178.838 166.68 178.838 166.488C178.838 166.285 178.795 166.109 178.71 165.96C178.624 165.8 178.502 165.677 178.342 165.592C178.192 165.496 178.016 165.448 177.814 165.448H175.446V167.544ZM175.446 164.104H177.542C177.734 164.104 177.904 164.056 178.054 163.96C178.203 163.864 178.315 163.736 178.39 163.576C178.475 163.416 178.518 163.24 178.518 163.048C178.518 162.771 178.427 162.541 178.246 162.36C178.075 162.168 177.846 162.072 177.558 162.072H175.446V164.104ZM182.476 169V160.616H184.62V163.784H185.34L187.612 160.616H189.948L186.972 164.664L190.268 169H187.82L185.308 165.672H184.62V169H182.476ZM190.947 166.52C190.947 165.976 191.096 165.501 191.395 165.096C191.704 164.68 192.131 164.36 192.675 164.136C193.219 163.912 193.843 163.8 194.547 163.8C194.899 163.8 195.256 163.827 195.619 163.88C195.982 163.933 196.296 164.019 196.563 164.136V163.688C196.563 163.155 196.403 162.744 196.083 162.456C195.774 162.168 195.31 162.024 194.691 162.024C194.232 162.024 193.795 162.104 193.379 162.264C192.963 162.424 192.526 162.659 192.067 162.968L191.379 161.56C191.934 161.197 192.499 160.925 193.075 160.744C193.662 160.563 194.275 160.472 194.915 160.472C196.11 160.472 197.038 160.771 197.699 161.368C198.371 161.965 198.707 162.819 198.707 163.928V166.6C198.707 166.824 198.744 166.984 198.819 167.08C198.904 167.176 199.038 167.235 199.219 167.256V169C199.027 169.032 198.851 169.059 198.691 169.08C198.542 169.101 198.414 169.112 198.307 169.112C197.88 169.112 197.555 169.016 197.331 168.824C197.118 168.632 196.984 168.397 196.931 168.12L196.883 167.688C196.52 168.157 196.067 168.52 195.523 168.776C194.979 169.032 194.424 169.16 193.859 169.16C193.304 169.16 192.803 169.048 192.355 168.824C191.918 168.589 191.571 168.275 191.315 167.88C191.07 167.475 190.947 167.021 190.947 166.52ZM196.163 166.952C196.28 166.824 196.376 166.696 196.451 166.568C196.526 166.44 196.563 166.323 196.563 166.216V165.368C196.307 165.261 196.03 165.181 195.731 165.128C195.432 165.064 195.15 165.032 194.883 165.032C194.328 165.032 193.87 165.155 193.507 165.4C193.155 165.635 192.979 165.949 192.979 166.344C192.979 166.557 193.038 166.76 193.155 166.952C193.272 167.144 193.443 167.299 193.667 167.416C193.891 167.533 194.158 167.592 194.467 167.592C194.787 167.592 195.102 167.533 195.411 167.416C195.72 167.288 195.971 167.133 196.163 166.952ZM89.1083 190.032V186.128H89.3323C89.5456 186.128 89.743 186.069 89.9243 185.952C90.1163 185.835 90.2816 185.637 90.4203 185.36C90.5696 185.072 90.687 184.677 90.7723 184.176C90.8683 183.675 90.9323 183.035 90.9643 182.256L91.0603 179.616H97.3483V186.128H98.5163V190.032H96.6443V188H90.9963V190.032H89.1083ZM92.0363 186.128H95.2043V181.424H92.9323L92.8843 182.464C92.8523 183.168 92.799 183.765 92.7243 184.256C92.6603 184.736 92.5696 185.131 92.4523 185.44C92.3456 185.739 92.207 185.968 92.0363 186.128ZM103.778 188.16C103.095 188.16 102.482 188.048 101.938 187.824C101.394 187.589 100.93 187.269 100.546 186.864C100.172 186.459 99.8844 185.995 99.6817 185.472C99.479 184.949 99.3777 184.4 99.3777 183.824C99.3777 183.237 99.479 182.683 99.6817 182.16C99.8844 181.637 100.172 181.173 100.546 180.768C100.93 180.363 101.394 180.048 101.938 179.824C102.482 179.589 103.095 179.472 103.778 179.472C104.46 179.472 105.068 179.589 105.602 179.824C106.146 180.048 106.61 180.363 106.994 180.768C107.378 181.173 107.666 181.637 107.858 182.16C108.06 182.683 108.162 183.237 108.162 183.824C108.162 184.4 108.06 184.949 107.858 185.472C107.666 185.995 107.378 186.459 106.994 186.864C106.62 187.269 106.162 187.589 105.618 187.824C105.074 188.048 104.46 188.16 103.778 188.16ZM101.586 183.824C101.586 184.315 101.682 184.752 101.874 185.136C102.066 185.509 102.327 185.803 102.658 186.016C102.988 186.229 103.362 186.336 103.778 186.336C104.183 186.336 104.551 186.229 104.882 186.016C105.212 185.792 105.474 185.493 105.666 185.12C105.868 184.736 105.97 184.299 105.97 183.808C105.97 183.328 105.868 182.896 105.666 182.512C105.474 182.128 105.212 181.829 104.882 181.616C104.551 181.403 104.183 181.296 103.778 181.296C103.362 181.296 102.988 181.408 102.658 181.632C102.327 181.845 102.066 182.144 101.874 182.528C101.682 182.901 101.586 183.333 101.586 183.824ZM112.765 190.032V186.128H112.989C113.202 186.128 113.399 186.069 113.581 185.952C113.773 185.835 113.938 185.637 114.077 185.36C114.226 185.072 114.343 184.677 114.429 184.176C114.525 183.675 114.589 183.035 114.621 182.256L114.717 179.616H121.005V186.128H122.173V190.032H120.301V188H114.653V190.032H112.765ZM115.693 186.128H118.861V181.424H116.589L116.541 182.464C116.509 183.168 116.455 183.765 116.381 184.256C116.317 184.736 116.226 185.131 116.109 185.44C116.002 185.739 115.863 185.968 115.693 186.128ZM123.562 188V179.616H128.234C128.81 179.616 129.274 179.712 129.626 179.904C129.989 180.096 130.255 180.347 130.426 180.656C130.597 180.965 130.682 181.296 130.682 181.648C130.682 182.117 130.575 182.528 130.362 182.88C130.159 183.232 129.839 183.504 129.402 183.696C129.893 183.835 130.293 184.075 130.602 184.416C130.911 184.747 131.066 185.184 131.066 185.728C131.066 186.251 130.943 186.683 130.698 187.024C130.453 187.355 130.101 187.6 129.642 187.76C129.183 187.92 128.639 188 128.01 188H123.562ZM125.594 186.544H127.946C128.138 186.544 128.314 186.496 128.474 186.4C128.634 186.304 128.757 186.176 128.842 186.016C128.938 185.856 128.986 185.68 128.986 185.488C128.986 185.285 128.943 185.109 128.858 184.96C128.773 184.8 128.65 184.677 128.49 184.592C128.341 184.496 128.165 184.448 127.962 184.448H125.594V186.544ZM125.594 183.104H127.69C127.882 183.104 128.053 183.056 128.202 182.96C128.351 182.864 128.463 182.736 128.538 182.576C128.623 182.416 128.666 182.24 128.666 182.048C128.666 181.771 128.575 181.541 128.394 181.36C128.223 181.168 127.994 181.072 127.706 181.072H125.594V183.104ZM136.512 188.16C135.84 188.16 135.232 188.048 134.688 187.824C134.144 187.589 133.68 187.275 133.296 186.88C132.912 186.475 132.614 186.016 132.4 185.504C132.198 184.981 132.096 184.432 132.096 183.856C132.096 183.056 132.272 182.325 132.624 181.664C132.987 181.003 133.499 180.475 134.16 180.08C134.832 179.675 135.622 179.472 136.528 179.472C137.446 179.472 138.23 179.675 138.88 180.08C139.531 180.475 140.027 181.003 140.368 181.664C140.72 182.315 140.896 183.019 140.896 183.776C140.896 183.904 140.891 184.037 140.88 184.176C140.87 184.304 140.859 184.411 140.848 184.496H134.368C134.411 184.923 134.534 185.296 134.736 185.616C134.95 185.936 135.216 186.181 135.536 186.352C135.867 186.512 136.219 186.592 136.592 186.592C137.019 186.592 137.419 186.491 137.792 186.288C138.176 186.075 138.438 185.797 138.576 185.456L140.416 185.968C140.214 186.395 139.92 186.773 139.536 187.104C139.163 187.435 138.72 187.696 138.208 187.888C137.696 188.069 137.131 188.16 136.512 188.16ZM134.32 183.136H138.704C138.662 182.709 138.539 182.341 138.336 182.032C138.144 181.712 137.888 181.467 137.568 181.296C137.248 181.115 136.891 181.024 136.496 181.024C136.112 181.024 135.76 181.115 135.44 181.296C135.131 181.467 134.875 181.712 134.672 182.032C134.48 182.341 134.363 182.709 134.32 183.136ZM147.227 188.16C146.576 188.16 146 188.016 145.499 187.728C145.008 187.429 144.624 187.029 144.347 186.528V191.408H142.203V179.616H144.075V181.056C144.395 180.565 144.8 180.181 145.291 179.904C145.781 179.616 146.341 179.472 146.971 179.472C147.536 179.472 148.053 179.584 148.523 179.808C149.003 180.032 149.419 180.347 149.771 180.752C150.123 181.147 150.395 181.605 150.587 182.128C150.789 182.64 150.891 183.195 150.891 183.792C150.891 184.603 150.731 185.339 150.411 186C150.101 186.661 149.669 187.189 149.115 187.584C148.571 187.968 147.941 188.16 147.227 188.16ZM146.507 186.336C146.837 186.336 147.136 186.267 147.403 186.128C147.669 185.989 147.899 185.803 148.091 185.568C148.293 185.323 148.443 185.051 148.539 184.752C148.645 184.443 148.699 184.123 148.699 183.792C148.699 183.44 148.64 183.115 148.523 182.816C148.416 182.517 148.256 182.256 148.043 182.032C147.829 181.797 147.579 181.616 147.291 181.488C147.013 181.36 146.709 181.296 146.379 181.296C146.176 181.296 145.968 181.333 145.755 181.408C145.552 181.472 145.355 181.568 145.163 181.696C144.971 181.824 144.8 181.973 144.651 182.144C144.512 182.315 144.411 182.501 144.347 182.704V184.672C144.475 184.981 144.645 185.264 144.859 185.52C145.083 185.776 145.339 185.979 145.627 186.128C145.915 186.267 146.208 186.336 146.507 186.336ZM152.343 188V179.632H154.487V185.136L158.247 179.616H160.199V188H158.055V182.624L154.343 188H152.343Z" fill="black"/>
<ellipse cx="65.8654" cy="38.5" rx="18.75" ry="19.5" fill="white"/>
<defs>
<linearGradient id="paint0_linear_53_818" x1="125" y1="-3.2019e-06" x2="229" y2="227.5" gradientUnits="userSpaceOnUse">
<stop offset="0.526042" stop-color="#F2F2F3"/>
<stop offset="1" stop-color="#F2F2F3" stop-opacity="0"/>
</linearGradient>
<linearGradient id="paint1_linear_53_818" x1="127.5" y1="56.6666" x2="127.5" y2="123.333" gradientUnits="userSpaceOnUse">
<stop stop-color="#FF9900" stop-opacity="0.76"/>
<stop offset="1" stop-color="#F0AF4E" stop-opacity="0.46"/>
</linearGradient>
</defs>
</svg>
