<svg width="75" height="78" viewBox="0 0 75 78" fill="none" xmlns="http://www.w3.org/2000/svg">
<circle cx="37.5" cy="40.5" r="37.5" fill="#F2F2F3"/>
<circle cx="23" cy="16" r="8" fill="white"/>
<path d="M45.384 44.896C47.176 45.1947 48.7333 45.8773 50.056 46.944C51.3787 47.968 52.4027 49.2907 53.128 50.912C53.896 52.5333 54.28 54.3253 54.28 56.288C54.28 58.9333 53.5973 61.2373 52.232 63.2C50.8667 65.1627 48.9253 66.6773 46.408 67.744C43.9333 68.8533 41.0107 69.408 37.64 69.408C34.3973 69.408 31.5173 68.8747 29 67.808C26.5253 66.784 24.456 65.2693 22.792 63.264L27.656 57.184C28.7653 58.5493 30.088 59.616 31.624 60.384C33.2027 61.1947 35.1227 61.6 37.384 61.6C39.9867 61.6 41.9707 61.0667 43.336 60C44.7013 58.976 45.384 57.4187 45.384 55.328C45.384 53.1093 44.5947 51.4027 43.016 50.208C41.4373 49.0133 39.048 48.416 35.848 48.416H34.056V42.016H36.04C38.6427 42.016 40.6693 41.4187 42.12 40.224C43.6133 39.0293 44.36 37.536 44.36 35.744C44.36 34.592 44.0827 33.632 43.528 32.864C42.9733 32.096 42.2053 31.52 41.224 31.136C40.2853 30.752 39.176 30.56 37.896 30.56C35.976 30.56 34.2267 31.008 32.648 31.904C31.0693 32.8 29.7893 34.0587 28.808 35.68L23.432 29.664C24.328 28.3413 25.544 27.2107 27.08 26.272C28.6587 25.2907 30.4507 24.5227 32.456 23.968C34.504 23.4133 36.6373 23.136 38.856 23.136C41.7573 23.136 44.296 23.6053 46.472 24.544C48.6907 25.4827 50.4187 26.8053 51.656 28.512C52.8933 30.2187 53.512 32.2027 53.512 34.464C53.512 36.128 53.1707 37.7067 52.488 39.2C51.8053 40.6933 50.8453 41.952 49.608 42.976C48.4133 43.9573 47.0053 44.5973 45.384 44.896Z" fill="#FF9900" fill-opacity="0.47"/>
</svg>
