<svg width="75" height="78" viewBox="0 0 75 78" fill="none" xmlns="http://www.w3.org/2000/svg">
<circle cx="37.5" cy="40.5" r="37.5" fill="#F2F2F3"/>
<circle cx="23" cy="16" r="8" fill="white"/>
<path d="M51.08 52.256V60H25.096V52.256H34.184V32.864C33.8 33.376 33.2027 33.9093 32.392 34.464C31.5813 34.976 30.664 35.4667 29.64 35.936C28.616 36.4053 27.592 36.7893 26.568 37.088C25.544 37.3867 24.6267 37.536 23.816 37.536V29.536C24.584 29.536 25.5013 29.3013 26.568 28.832C27.6773 28.32 28.7653 27.7227 29.832 27.04C30.9413 26.3573 31.88 25.696 32.648 25.056C33.4587 24.3733 33.9707 23.84 34.184 23.456H42.952V52.256H51.08Z" fill="#FF9900" fill-opacity="0.47"/>
</svg>
