<svg width="75" height="78" viewBox="0 0 75 78" fill="none" xmlns="http://www.w3.org/2000/svg">
<circle cx="37.5" cy="40.5" r="37.5" fill="#F2F2F3"/>
<circle cx="23" cy="16" r="8" fill="white"/>
<path d="M23.432 60C23.432 58.08 23.5813 56.352 23.88 54.816C24.1787 53.28 24.6907 51.8507 25.416 50.528C26.184 49.2053 27.208 47.968 28.488 46.816C29.8107 45.6213 31.4747 44.4693 33.48 43.36C35.2293 42.4213 36.7653 41.6107 38.088 40.928C39.4107 40.2027 40.52 39.5413 41.416 38.944C42.3547 38.3467 43.0587 37.7493 43.528 37.152C43.9973 36.512 44.232 35.7867 44.232 34.976C44.232 34.1227 43.9973 33.3547 43.528 32.672C43.0587 31.9467 42.3973 31.3707 41.544 30.944C40.6907 30.5173 39.624 30.304 38.344 30.304C37.32 30.304 36.36 30.432 35.464 30.688C34.6107 30.944 33.8 31.3067 33.032 31.776C32.3067 32.2453 31.624 32.7787 30.984 33.376C30.344 33.9307 29.768 34.528 29.256 35.168L23.816 28.896C24.4133 28.2987 25.2027 27.6587 26.184 26.976C27.208 26.2507 28.4027 25.5893 29.768 24.992C31.176 24.352 32.712 23.84 34.376 23.456C36.0827 23.0293 37.896 22.816 39.816 22.816C42.7173 22.816 45.192 23.2853 47.24 24.224C49.288 25.12 50.8453 26.3787 51.912 28C53.0213 29.6213 53.576 31.52 53.576 33.696C53.576 35.1893 53.2987 36.512 52.744 37.664C52.1893 38.816 51.4853 39.84 50.632 40.736C49.7787 41.5893 48.84 42.3573 47.816 43.04C46.8347 43.7227 45.8747 44.32 44.936 44.832C43.6133 45.5147 42.4187 46.1547 41.352 46.752C40.2853 47.3067 39.3467 47.8827 38.536 48.48C37.7253 49.0347 37 49.6107 36.36 50.208C35.7627 50.8053 35.2293 51.488 34.76 52.256H54.28V60H23.432Z" fill="#FF9900" fill-opacity="0.47"/>
</svg>
