<svg width="18" height="17" viewBox="0 0 18 17" fill="none" xmlns="http://www.w3.org/2000/svg">
<path d="M10.4687 8.49995L17.0312 1.94787C17.2274 1.75172 17.3376 1.48568 17.3376 1.20828C17.3376 0.930885 17.2274 0.664849 17.0312 0.468699C16.8351 0.272549 16.5691 0.162354 16.2917 0.162354C16.0143 0.162354 15.7482 0.272549 15.5521 0.468699L8.99999 7.0312L2.4479 0.468699C2.25175 0.272549 1.98572 0.162354 1.70832 0.162354C1.43092 0.162354 1.16489 0.272549 0.968737 0.468699C0.772588 0.664849 0.662392 0.930885 0.662392 1.20828C0.662392 1.48568 0.772588 1.75172 0.968737 1.94787L7.53124 8.49995L0.968737 15.052C0.871103 15.1489 0.79361 15.2641 0.740726 15.391C0.687842 15.518 0.660614 15.6541 0.660614 15.7916C0.660614 15.9291 0.687842 16.0653 0.740726 16.1922C0.79361 16.3192 0.871103 16.4344 0.968737 16.5312C1.06557 16.6288 1.18078 16.7063 1.30772 16.7592C1.43466 16.8121 1.57081 16.8393 1.70832 16.8393C1.84583 16.8393 1.98198 16.8121 2.10892 16.7592C2.23586 16.7063 2.35107 16.6288 2.4479 16.5312L8.99999 9.9687L15.5521 16.5312C15.6489 16.6288 15.7641 16.7063 15.8911 16.7592C16.018 16.8121 16.1541 16.8393 16.2917 16.8393C16.4292 16.8393 16.5653 16.8121 16.6923 16.7592C16.8192 16.7063 16.9344 16.6288 17.0312 16.5312C17.1289 16.4344 17.2064 16.3192 17.2593 16.1922C17.3121 16.0653 17.3394 15.9291 17.3394 15.7916C17.3394 15.6541 17.3121 15.518 17.2593 15.391C17.2064 15.2641 17.1289 15.1489 17.0312 15.052L10.4687 8.49995Z" fill="black"/>
</svg>
